<?xml version="1.0" encoding="UTF-8"?>
<!DOCTYPE svg PUBLIC "-//W3C//DTD SVG 1.1//EN" "http://www.w3.org/Graphics/SVG/1.1/DTD/svg11.dtd">
<svg xmlns="http://www.w3.org/2000/svg" version="1.1" width="240px" height="496px" style="shape-rendering:geometricPrecision; text-rendering:geometricPrecision; image-rendering:optimizeQuality; fill-rule:evenodd; clip-rule:evenodd" xmlns:xlink="http://www.w3.org/1999/xlink">
<g><path style="opacity:1" fill="#37946d" d="M -0.5,-0.5 C 79.5,-0.5 159.5,-0.5 239.5,-0.5C 239.5,164.833 239.5,330.167 239.5,495.5C 159.5,495.5 79.5,495.5 -0.5,495.5C -0.5,330.167 -0.5,164.833 -0.5,-0.5 Z"/></g>
<g><path style="opacity:1" fill="#1a4532" d="M 116.5,27.5 C 126.288,27.2208 131.955,31.8874 133.5,41.5C 130.245,54.7495 122.578,58.2495 110.5,52C 102.754,41.4094 104.754,33.2427 116.5,27.5 Z"/></g>
<g><path style="opacity:1" fill="#1a4532" d="M 135.5,39.5 C 158.836,39.3334 182.169,39.5 205.5,40C 206.659,59.0933 206.826,78.26 206,97.5C 205,98.8333 204,98.8333 203,97.5C 202.5,79.5031 202.333,61.5031 202.5,43.5C 180.164,43.6666 157.831,43.5 135.5,43C 134.316,41.8545 134.316,40.6879 135.5,39.5 Z"/></g>
<g><path style="opacity:1" fill="#1a4532" d="M 118.5,56.5 C 119.496,56.4142 120.329,56.7476 121,57.5C 121.667,70.8333 121.667,84.1667 121,97.5C 120,98.8333 119,98.8333 118,97.5C 117.186,83.7584 117.353,70.0917 118.5,56.5 Z"/></g>
<g><path style="opacity:1" fill="#1a4532" d="M 116.5,99.5 C 126.288,99.2208 131.955,103.887 133.5,113.5C 130.245,126.75 122.578,130.25 110.5,124C 102.754,113.409 104.754,105.243 116.5,99.5 Z"/></g>
<g><path style="opacity:1" fill="#1a4532" d="M 201.5,99.5 C 211.288,99.2208 216.955,103.887 218.5,113.5C 215.245,126.75 207.578,130.25 195.5,124C 187.754,113.409 189.754,105.243 201.5,99.5 Z"/></g>
<g><path style="opacity:1" fill="#1a4532" d="M 130.5,123.5 C 141.413,132.909 151.913,142.909 162,153.5C 171.833,143.667 181.667,133.833 191.5,124C 193.667,123.5 194.5,124.333 194,126.5C 184.167,136.333 174.333,146.167 164.5,156C 174.333,165.833 184.167,175.667 194,185.5C 194.5,187.667 193.667,188.5 191.5,188C 181.667,178.167 171.833,168.333 162,158.5C 152.167,168.333 142.333,178.167 132.5,188C 130.333,188.5 129.5,187.667 130,185.5C 139.833,175.667 149.667,165.833 159.5,156C 149.667,146.167 139.833,136.333 130,126.5C 129.53,125.423 129.697,124.423 130.5,123.5 Z"/></g>
<g><path style="opacity:1" fill="#1a4532" d="M 118.5,128.5 C 119.496,128.414 120.329,128.748 121,129.5C 121.667,147.167 121.667,164.833 121,182.5C 120,183.833 119,183.833 118,182.5C 117.181,164.426 117.348,146.426 118.5,128.5 Z"/></g>
<g><path style="opacity:1" fill="#1a4532" d="M 203.5,128.5 C 204.496,128.414 205.329,128.748 206,129.5C 206.667,147.167 206.667,164.833 206,182.5C 205,183.833 204,183.833 203,182.5C 202.181,164.426 202.348,146.426 203.5,128.5 Z"/></g>
<g><path style="opacity:1" fill="#1a4532" d="M 116.5,184.5 C 126.288,184.221 131.955,188.887 133.5,198.5C 130.245,211.75 122.578,215.25 110.5,209C 102.754,198.409 104.754,190.243 116.5,184.5 Z"/></g>
<g><path style="opacity:1" fill="#1a4532" d="M 201.5,184.5 C 211.288,184.221 216.955,188.887 218.5,198.5C 215.245,211.75 207.578,215.25 195.5,209C 187.754,198.409 189.754,190.243 201.5,184.5 Z"/></g>
<g><path style="opacity:1" fill="#1a4532" d="M 118.5,213.5 C 119.496,213.414 120.329,213.748 121,214.5C 121.667,250.833 121.667,287.167 121,323.5C 120.586,323.957 120.086,324.291 119.5,324.5C 105.99,317.245 92.323,310.245 78.5,303.5C 64.8333,310.333 51.1667,317.167 37.5,324C 34.3255,324.829 33.3255,323.829 34.5,321C 48.1667,314.167 61.8333,307.333 75.5,300.5C 76.3295,295.198 76.8295,289.864 77,284.5C 78,283.167 79,283.167 80,284.5C 80.1705,289.864 80.6705,295.198 81.5,300.5C 93.4112,306.372 105.245,312.372 117,318.5C 117.667,285.5 117.667,252.5 117,219.5C 105.245,225.628 93.4112,231.628 81.5,237.5C 80.811,242.718 80.1443,247.884 79.5,253C 78.5509,253.617 77.7175,253.451 77,252.5C 76.1928,246.584 76.3594,240.75 77.5,235C 91.5436,228.314 105.21,221.147 118.5,213.5 Z"/></g>
<g><path style="opacity:1" fill="#1a4532" d="M 203.5,213.5 C 204.496,213.414 205.329,213.748 206,214.5C 206.667,227.167 206.667,239.833 206,252.5C 205,253.833 204,253.833 203,252.5C 202.187,239.425 202.354,226.425 203.5,213.5 Z"/></g>
<g><path style="opacity:1" fill="#1a4532" d="M 75.5,254.5 C 85.2885,254.221 90.9551,258.887 92.5,268.5C 89.2448,281.75 81.5781,285.25 69.5,279C 61.7542,268.409 63.7542,260.243 75.5,254.5 Z"/></g>
<g><path style="opacity:1" fill="#1a4532" d="M 201.5,254.5 C 211.288,254.221 216.955,258.887 218.5,268.5C 215.245,281.75 207.578,285.25 195.5,279C 187.754,268.409 189.754,260.243 201.5,254.5 Z"/></g>
<g><path style="opacity:1" fill="#1a4532" d="M 203.5,283.5 C 204.496,283.414 205.329,283.748 206,284.5C 206.667,297.5 206.667,310.5 206,323.5C 205,324.833 204,324.833 203,323.5C 202.187,310.092 202.353,296.758 203.5,283.5 Z"/></g>
<g><path style="opacity:1" fill="#1a4532" d="M 32.5,325.5 C 42.2885,325.221 47.9551,329.887 49.5,339.5C 46.2448,352.75 38.5781,356.25 26.5,350C 18.7542,339.409 20.7542,331.243 32.5,325.5 Z"/></g>
<g><path style="opacity:1" fill="#1a4532" d="M 116.5,325.5 C 126.288,325.221 131.955,329.887 133.5,339.5C 130.245,352.75 122.578,356.25 110.5,350C 102.754,339.409 104.754,331.243 116.5,325.5 Z"/></g>
<g><path style="opacity:1" fill="#1a4532" d="M 201.5,325.5 C 211.288,325.221 216.955,329.887 218.5,339.5C 215.245,352.75 207.578,356.25 195.5,350C 187.754,339.409 189.754,331.243 201.5,325.5 Z"/></g>
<g><path style="opacity:1" fill="#1a4532" d="M 34.5,354.5 C 35.4959,354.414 36.3292,354.748 37,355.5C 37.6667,364.5 37.6667,373.5 37,382.5C 36,383.833 35,383.833 34,382.5C 33.1954,373.089 33.362,363.756 34.5,354.5 Z"/></g>
<g><path style="opacity:1" fill="#1a4532" d="M 118.5,354.5 C 119.496,354.414 120.329,354.748 121,355.5C 121.667,364.5 121.667,373.5 121,382.5C 120,383.833 119,383.833 118,382.5C 117.195,373.089 117.362,363.756 118.5,354.5 Z"/></g>
<g><path style="opacity:1" fill="#1a4532" d="M 203.5,354.5 C 204.496,354.414 205.329,354.748 206,355.5C 206.667,364.5 206.667,373.5 206,382.5C 205,383.833 204,383.833 203,382.5C 202.195,373.089 202.362,363.756 203.5,354.5 Z"/></g>
<g><path style="opacity:1" fill="#1a4532" d="M 32.5,384.5 C 42.2885,384.221 47.9551,388.887 49.5,398.5C 46.2448,411.75 38.5781,415.25 26.5,409C 18.7542,398.409 20.7542,390.243 32.5,384.5 Z"/></g>
<g><path style="opacity:1" fill="#1a4532" d="M 116.5,384.5 C 126.288,384.221 131.955,388.887 133.5,398.5C 130.245,411.75 122.578,415.25 110.5,409C 102.754,398.409 104.754,390.243 116.5,384.5 Z"/></g>
<g><path style="opacity:1" fill="#1a4532" d="M 201.5,384.5 C 211.288,384.221 216.955,388.887 218.5,398.5C 215.245,411.75 207.578,415.25 195.5,409C 187.754,398.409 189.754,390.243 201.5,384.5 Z"/></g>
<g><path style="opacity:1" fill="#1a4532" d="M 34.5,413.5 C 35.4959,413.414 36.3292,413.748 37,414.5C 37.4999,427.829 37.6666,441.163 37.5,454.5C 59.5025,454.333 81.5025,454.5 103.5,455C 104.833,456 104.833,457 103.5,458C 80.5,458.667 57.5,458.667 34.5,458C 33.1744,443.167 33.1744,428.333 34.5,413.5 Z"/></g>
<g><path style="opacity:1" fill="#1a4532" d="M 118.5,413.5 C 119.496,413.414 120.329,413.748 121,414.5C 121.667,423.167 121.667,431.833 121,440.5C 120,441.833 119,441.833 118,440.5C 117.196,431.422 117.363,422.422 118.5,413.5 Z"/></g>
<g><path style="opacity:1" fill="#1a4532" d="M 203.5,413.5 C 205.686,413.511 206.519,414.511 206,416.5C 192.167,430.333 178.333,444.167 164.5,458C 154.589,458.818 144.756,458.651 135,457.5C 134.383,456.551 134.549,455.718 135.5,455C 144.833,454.667 154.167,454.333 163.5,454C 177.035,440.632 190.369,427.132 203.5,413.5 Z"/></g>
<g><path style="opacity:1" fill="#1a4532" d="M 116.5,442.5 C 126.288,442.221 131.955,446.887 133.5,456.5C 130.245,469.75 122.578,473.25 110.5,467C 102.754,456.409 104.754,448.243 116.5,442.5 Z"/></g>
</svg>
